# xmcd
# Track frame offsets:
# 150
# 8420
# 17020
# 41515
# 51853
# 66848
# 89635
# 112818
# 132975
# 147255
# 169663
# 185180
#
# Disc length: 2800 seconds
# Revision: 0
# Processed by: cddbd v1.5.2PL0 Copyright (c) Steve Scherf et al.
# Submitted via: VisiTrax 2.11.0.264 - For more info visit www.synapsa.com
#
DISCID=9f0aee0c
DTITLE=Sister Rosetta Tharpe - Sister Rosetta Tharpe Live in 1960
DYEAR=1960
DGENRE=Blues
TTITLE0=Can`t Sit Down
TTITLE1=He`s Got The Hole world In His Hand
TTITLE2=Vacation In The sky
TTITLE3=Didn`t It Rain
TTITLE4=Can`t No Grave Hold My Body Down
TTITLE5=Two Little Fishes,Five Loaves Of Bread
TTITLE6=The Gospel Train
TTITLE7=Precious Lord
TTITLE8=Down By The Riverside
TTITLE9=Mansion In The sky
TTITLE10=Is Everybody Happy
TTITLE11=Peace In The Valley
EXTD=
EXTT0=
EXTT1=
EXTT2=
EXTT3=
EXTT4=
EXTT5=
EXTT6=
EXTT7=
EXTT8=
EXTT9=
EXTT10=
EXTT11=
PLAYORDER=
